<svg width="1600" height="416" viewBox="0 0 1600 416" fill="none" xmlns="http://www.w3.org/2000/svg">
<path d="M1954.48 -179.177C1762.64 -150.158 1461.87 -91.4292 1614.88 93.962C1809.6 329.885 2285.44 268.08 2074.1 450.173" stroke="white" stroke-opacity="0.2" stroke-width="0.5"/>
<path d="M1898.38 -139.746C1706.54 -110.726 1405.77 -51.9978 1558.78 133.393C1753.5 369.317 2229.34 307.512 2018 489.605" stroke="white" stroke-opacity="0.2" stroke-width="0.5"/>
<path d="M1839.47 -104.665C1647.63 -75.6451 1346.86 -16.9165 1499.87 168.475C1694.59 404.398 2170.42 342.593 1959.09 524.686" stroke="white" stroke-opacity="0.2" stroke-width="0.5"/>
<path d="M1777.61 -75.0723C1585.77 -46.0526 1285 12.676 1438.02 198.067C1632.74 433.991 2108.57 372.185 1897.24 554.278" stroke="white" stroke-opacity="0.2" stroke-width="0.5"/>
<path d="M1713 -52.116C1521.16 -23.0963 1220.39 35.6323 1373.41 221.024C1568.13 456.947 2043.96 395.142 1832.63 577.235" stroke="white" stroke-opacity="0.2" stroke-width="0.5"/>
<path d="M1646.21 -36.6062C1454.37 -7.58651 1153.6 51.1421 1306.61 236.533C1501.33 472.457 1977.17 410.651 1765.83 592.744" stroke="white" stroke-opacity="0.2" stroke-width="0.5"/>
<path d="M1578.11 -28.6157C1386.27 0.403969 1085.5 59.1326 1238.51 244.524C1433.23 480.447 1909.07 418.642 1697.73 600.735" stroke="white" stroke-opacity="0.2" stroke-width="0.5"/>
<path d="M1509.55 -27.3508C1317.71 1.66886 1016.94 60.3975 1169.96 245.789C1364.68 481.712 1840.51 419.907 1629.18 602" stroke="white" stroke-opacity="0.2" stroke-width="0.5"/>
<path d="M1441.11 -31.4136C1249.27 -2.39388 948.495 56.3347 1101.51 241.726C1296.23 477.649 1772.06 415.844 1560.73 597.937" stroke="white" stroke-opacity="0.2" stroke-width="0.5"/>
<path d="M1372.98 -39.2307C1181.14 -10.211 880.373 48.5176 1033.39 233.909C1228.11 469.832 1703.94 408.027 1492.61 590.12" stroke="white" stroke-opacity="0.2" stroke-width="0.5"/>
<path d="M1305.17 -49.3562C1113.33 -20.3365 812.557 38.3921 965.57 223.783C1160.29 459.707 1636.12 397.901 1424.79 579.994" stroke="white" stroke-opacity="0.2" stroke-width="0.5"/>
<path d="M1237.53 -60.5994C1045.69 -31.5797 744.917 27.1489 897.93 212.54C1092.65 448.464 1568.48 386.658 1357.15 568.751" stroke="white" stroke-opacity="0.2" stroke-width="0.5"/>
<path d="M1169.92 -72.031C978.078 -43.0113 677.308 15.7173 830.321 201.109C1025.04 437.032 1500.88 375.227 1289.54 557.32" stroke="white" stroke-opacity="0.2" stroke-width="0.5"/>
<path d="M1102.23 -82.9517C910.385 -53.932 609.615 4.79663 762.628 190.188C957.348 426.111 1433.18 364.306 1221.85 546.399" stroke="white" stroke-opacity="0.2" stroke-width="0.5"/>
<path d="M1034.37 -92.8489C842.534 -63.8292 541.764 -5.10059 694.777 180.291C889.497 416.214 1365.33 354.409 1154 536.502" stroke="white" stroke-opacity="0.2" stroke-width="0.5"/>
<path d="M966.336 -101.357C774.496 -72.3372 473.726 -13.6086 626.739 171.783C821.459 407.706 1297.29 345.901 1085.96 527.994" stroke="white" stroke-opacity="0.2" stroke-width="0.5"/>
<path d="M898.112 -108.229C706.272 -79.2096 405.502 -20.481 558.515 164.91C753.235 400.834 1229.07 339.028 1017.74 521.121" stroke="white" stroke-opacity="0.2" stroke-width="0.5"/>
<path d="M829.31 -113.372C637.47 -84.3526 336.7 -25.624 489.713 159.767C684.433 395.691 1160.27 333.885 948.934 515.978" stroke="white" stroke-opacity="0.2" stroke-width="0.5"/>
<path d="M760.856 -117.331C569.016 -88.3116 268.246 -29.583 421.259 155.808C615.979 391.732 1091.81 329.926 880.479 512.019" stroke="white" stroke-opacity="0.2" stroke-width="0.5"/>
<path d="M692.352 -120.301C500.512 -91.2811 199.742 -32.5525 352.755 152.839C547.475 388.762 1023.31 326.957 811.976 509.05" stroke="white" stroke-opacity="0.2" stroke-width="0.5"/>
<path d="M623.808 -122.146C431.968 -93.1261 131.198 -34.3975 284.211 150.994C478.931 386.917 954.766 325.112 743.432 507.205" stroke="white" stroke-opacity="0.2" stroke-width="0.5"/>
<path d="M555.242 -122.696C363.402 -93.6761 62.632 -34.9475 215.645 150.444C410.365 386.367 886.199 324.562 674.865 506.655" stroke="white" stroke-opacity="0.2" stroke-width="0.5"/>
<path d="M486.681 -121.734C294.841 -92.7142 -5.92858 -33.9856 147.085 151.406C341.804 387.329 817.639 325.524 606.305 507.617" stroke="white" stroke-opacity="0.2" stroke-width="0.5"/>
<path d="M418.168 -118.974C226.328 -89.9544 -74.4422 -31.2258 78.5708 154.165C273.291 390.089 749.125 328.284 537.791 510.377" stroke="white" stroke-opacity="0.2" stroke-width="0.5"/>
<path d="M349.777 -114.031C157.937 -85.0111 -142.833 -26.2825 10.1802 159.109C204.9 395.032 680.735 333.227 469.4 515.32" stroke="white" stroke-opacity="0.2" stroke-width="0.5"/>
<path d="M281.639 -106.361C89.7993 -77.3411 -210.971 -18.6126 -57.9575 166.779C136.762 402.702 612.597 340.897 401.263 522.99" stroke="white" stroke-opacity="0.2" stroke-width="0.5"/>
<path d="M213.983 -95.1819C22.1431 -66.1622 -278.627 -7.4336 -125.614 177.958C69.1062 413.881 544.941 352.076 333.606 534.169" stroke="white" stroke-opacity="0.2" stroke-width="0.5"/>
<path d="M147.281 -79.377C-44.559 -50.3573 -345.329 8.37133 -192.316 193.763C2.40405 429.686 478.238 367.881 266.904 549.974" stroke="white" stroke-opacity="0.2" stroke-width="0.5"/>
<path d="M82.5311 -58.2952C-109.309 -29.2755 -410.079 29.4531 -257.066 214.844C-62.346 450.768 413.488 388.963 202.154 571.056" stroke="white" stroke-opacity="0.2" stroke-width="0.5"/>
</svg>
