<svg width="57" height="56" viewBox="0 0 57 56" fill="none" xmlns="http://www.w3.org/2000/svg">
<circle cx="28.6667" cy="28" r="27.75" fill="white" stroke="#181818" stroke-width="0.5"/>
<path d="M36.0002 36.25V34.4167C36.0002 33.4442 35.6139 32.5116 34.9262 31.8239C34.2386 31.1363 33.306 30.75 32.3335 30.75H25.0002C24.0277 30.75 23.0951 31.1363 22.4074 31.8239C21.7198 32.5116 21.3335 33.4442 21.3335 34.4167V36.25" stroke="#181818" stroke-linecap="round" stroke-linejoin="round"/>
<path d="M28.6669 27.0833C30.692 27.0833 32.3336 25.4417 32.3336 23.4167C32.3336 21.3916 30.692 19.75 28.6669 19.75C26.6419 19.75 25.0002 21.3916 25.0002 23.4167C25.0002 25.4417 26.6419 27.0833 28.6669 27.0833Z" stroke="#181818" stroke-linecap="round" stroke-linejoin="round"/>
</svg>
