<svg width="35" height="35" viewBox="0 0 35 35" fill="none" xmlns="http://www.w3.org/2000/svg">
<g clip-path="url(#clip0_312_91)">
<path d="M31.2288 16.4746H26.3456C26.6116 15.9584 26.7627 15.3739 26.7627 14.7544V3.77125C26.7627 1.69163 25.0711 0 22.9914 0H12.0086C9.92893 0 8.2373 1.69163 8.2373 3.77125V14.7544C8.2373 15.3739 8.38844 15.9584 8.6544 16.4746H3.77125C1.69163 16.4746 0 18.1662 0 20.2459V31.229C0 33.3084 1.69163 35 3.77125 35H14.7541C15.8356 35 16.8116 34.5418 17.5 33.8099C18.1884 34.5418 19.1644 35 20.2459 35H31.2288C33.3084 35 35 33.3084 35 31.229V20.2459C35 18.1662 33.3084 16.4746 31.2288 16.4746ZM32.9492 20.2459V29.6544H18.5254V20.2459C18.5254 19.2971 19.2971 18.5254 20.2459 18.5254H21.9661V21.8932C21.9661 22.4595 22.4253 22.9185 22.9914 22.9185H28.4832C29.0493 22.9185 29.5086 22.4595 29.5086 21.8932V18.5254H31.2288C32.1775 18.5254 32.9492 19.2971 32.9492 20.2459ZM27.4578 20.8678H24.0168V18.5254H27.4578V20.8678ZM19.2205 2.05078V4.39316H15.7795V2.05078H19.2205ZM12.0086 2.05078H13.7288V5.41855C13.7288 5.98492 14.188 6.44394 14.7541 6.44394H20.2459C20.812 6.44394 21.2712 5.98492 21.2712 5.41855V2.05078H22.9914C23.9402 2.05078 24.7119 2.82249 24.7119 3.77125V13.1797H10.2881V3.77125C10.2881 2.82249 11.0598 2.05078 12.0086 2.05078ZM10.3556 15.2305H24.6444C24.4371 15.948 23.7749 16.4746 22.9914 16.4746H12.0086C11.2251 16.4746 10.5629 15.948 10.3556 15.2305ZM10.9832 18.5254V20.8678H7.54223V18.5254H10.9832ZM3.77125 18.5254H5.49145V21.8932C5.49145 22.4595 5.95074 22.9185 6.51684 22.9185H12.0086C12.5747 22.9185 13.0339 22.4595 13.0339 21.8932V18.5254H14.7541C15.7029 18.5254 16.4746 19.2971 16.4746 20.2459V29.6544H2.05078V20.2459C2.05078 19.2971 2.82249 18.5254 3.77125 18.5254ZM14.7541 32.9492H3.77125C2.98779 32.9492 2.32555 32.4226 2.11834 31.7051H16.4071C16.1998 32.4226 15.5376 32.9492 14.7541 32.9492ZM31.2288 32.9492H20.2459C19.4624 32.9492 18.8002 32.4226 18.5929 31.7051H32.8817C32.6744 32.4226 32.0122 32.9492 31.2288 32.9492Z" fill="#35559E"/>
</g>
<defs>
<clipPath id="clip0_312_91">
<rect width="35" height="35" fill="white"/>
</clipPath>
</defs>
</svg>
