<svg width="236" height="254" viewBox="0 0 236 254" fill="none" xmlns="http://www.w3.org/2000/svg">
<path d="M139.528 107.851L106.384 179.354L14.278 165.18L22.7087 119.97C22.919 118.811 23.2882 117.757 23.7101 116.756C26.081 111.434 31.6667 107.851 37.9368 107.851H139.528V107.851Z" fill="#7979F7"/>
<path d="M139.528 107.851L106.384 179.354L14.278 165.18L16.4907 153.377L86.6379 164.189C93.6832 165.275 100.597 161.571 103.597 155.104L125.511 107.851H139.528V107.851Z" fill="#5E5EEF"/>
<path d="M219.68 253.302H141.021L110.798 187.05L113.826 180.507C114.622 178.787 147.202 108.421 147.466 107.851H198.05C205.569 107.851 212.014 112.965 213.283 119.968L221.925 166.132C222.024 166.664 224.839 181.893 224.66 180.922L234.962 236.163C236.622 245.101 229.298 253.302 219.68 253.302Z" fill="#00D67F"/>
<path d="M219.673 253.281H141.003L134.996 240.161H206.552C216.195 240.161 223.519 231.994 221.832 223.036L213.56 178.458C213.46 177.926 210.585 162.681 210.768 163.652C197.324 91.5684 215.39 188.186 200.387 108.009C206.869 108.957 212.191 113.699 213.297 119.97L221.938 166.128C222.036 166.66 224.858 181.906 224.678 180.935L234.953 236.156C236.639 245.114 229.316 253.281 219.673 253.281Z" fill="#00C179"/>
<path d="M141.021 253.302H16.3204C6.70191 253.302 -0.621949 245.101 1.03796 236.163L11.7308 178.802L13.0003 171.984L110.798 187.049L141.021 253.302Z" fill="#F9B938"/>
<path d="M141.003 253.281H16.3324C8.11274 253.281 1.5262 247.327 0.893921 240.003C1.63169 240.108 2.4222 240.161 3.21207 240.161H127.883L103.117 185.888L110.81 187.047L141.003 253.281Z" fill="#ECB021"/>
<path d="M119.724 189.035L148.96 253.281H132.994L106.713 195.607C106.047 194.145 104.69 193.118 103.102 192.874L11.7488 178.827L13.0134 171.977L14.278 165.18L102.844 178.81C104.941 179.132 106.998 178.029 107.89 176.105L139.528 107.851H155.494L139.697 141.947C138.418 144.706 140.018 147.941 142.987 148.6L221.938 166.129C222.034 166.661 224.8 181.897 224.625 180.935L135.005 160.957C132.816 160.47 130.584 161.574 129.644 163.61L119.735 185.065C119.154 186.323 119.15 187.773 119.724 189.035V189.035Z" fill="#E4E3FF"/>
<path d="M142.904 240.124L148.96 253.244H132.994L126.986 240.124H142.904Z" fill="#D0D0F7"/>
<path d="M224.625 180.935L213.56 178.458C213.46 177.926 210.585 162.681 210.768 163.652L221.938 166.128C222.035 166.661 224.8 181.897 224.625 180.935Z" fill="#D0D0F7"/>
<path d="M127.544 57.2929C127.544 84.304 97.0055 127.497 80.7826 148.533C75.8028 155.006 66.0944 155.006 61.1146 148.533C44.8917 127.497 14.3534 84.304 14.3534 57.2929C14.3534 26.0498 39.7052 0.698242 70.9486 0.698242C102.192 0.698242 127.544 26.0498 127.544 57.2929Z" fill="#FC6559"/>
<g opacity="0.3">
<path d="M38.0075 25.3434C37.0196 25.3434 36.0316 24.9472 35.3035 24.1624C33.9193 22.6702 34.0042 20.3366 35.499 18.9498C45.7133 9.46621 59.0021 4.24072 72.911 4.24072C74.9488 4.24072 76.6005 5.8925 76.6005 7.93021C76.6005 9.96792 74.9488 11.6197 72.911 11.6197C60.87 11.6197 49.3642 16.1428 40.5161 24.358C39.806 25.0166 38.9055 25.3434 38.0075 25.3434V25.3434Z" fill="white"/>
</g>
<g opacity="0.3">
<path d="M28.4699 37.2815C27.8421 37.2815 27.2066 37.122 26.6226 36.785C24.8602 35.7636 24.2607 33.5071 25.2821 31.7422C26.3164 29.9566 27.4742 28.1993 28.7195 26.5192C29.9313 24.8829 32.2443 24.5433 33.8806 25.7577C35.5144 26.9721 35.8566 29.2825 34.6422 30.9188C33.5667 32.3648 32.5711 33.8751 31.6628 35.4419C30.981 36.6203 29.7409 37.2815 28.4699 37.2815V37.2815Z" fill="white"/>
</g>
<path d="M127.522 57.2941C127.522 84.3002 97.0113 127.483 80.7892 148.512C75.802 155.028 66.0953 155.028 61.1081 148.512C60.1646 147.299 59.1751 146.041 58.1866 144.693C63.2649 146.985 69.5554 145.771 73.2404 140.963C89.4625 119.934 119.973 76.7511 119.973 49.745C119.973 35.9948 115.075 23.413 106.942 13.6172C119.524 23.9972 127.522 39.7245 127.522 57.2941V57.2941Z" fill="#F05543"/>
<path d="M70.951 97.3817C93.0039 97.3817 110.881 79.5043 110.881 57.4515C110.881 35.3986 93.0039 17.5212 70.951 17.5212C48.8982 17.5212 31.0208 35.3986 31.0208 57.4515C31.0208 79.5043 48.8982 97.3817 70.951 97.3817Z" fill="white"/>
<path d="M101.747 32.0793C94.9502 26.5991 86.2552 23.2794 76.7183 23.2794C54.6399 23.2794 36.7777 41.1422 36.7777 63.2203C36.7777 72.7048 40.0967 81.3992 45.5769 88.2491C36.6723 80.9248 31.0338 69.8596 31.0338 57.477C31.0338 35.3989 48.8966 17.5361 70.975 17.5361C83.3576 17.5361 94.4228 23.1742 101.747 32.0793Z" fill="#E4E3FF"/>
<g opacity="0.3">
<path d="M19.0334 199.249L18.988 199.241C17.2136 198.944 16.0815 197.269 16.3776 195.495L17.253 190.967C17.5493 189.193 19.2242 188.061 20.9534 188.348C20.9534 188.348 20.9534 188.348 20.9985 188.357C22.7642 188.699 23.8963 190.374 23.6003 192.148L22.7248 196.675C22.4374 198.405 20.7626 199.537 19.0334 199.249V199.249Z" fill="white"/>
<path d="M12.6793 232.353C10.9136 232.012 9.79019 230.292 10.1229 228.571L14.8502 204.123C15.1829 202.403 16.8125 201.262 18.5417 201.549C18.587 201.558 18.587 201.558 18.6323 201.566C20.3981 201.908 21.5213 203.628 21.1887 205.349L16.4613 229.797C16.1287 231.517 14.3179 232.623 12.6793 232.353V232.353Z" fill="white"/>
</g>
<g opacity="0.3">
<path d="M30.8048 126.158L30.7595 126.15C28.9851 125.853 27.853 124.178 28.1491 122.404L28.5633 120.545C28.8596 118.772 30.5345 117.639 32.2637 117.927C32.2637 117.927 32.2637 117.927 32.3088 117.935C34.0745 118.277 35.2066 119.952 34.9106 121.726L34.4963 123.584C34.2089 125.314 32.534 126.446 30.8048 126.158Z" fill="white"/>
<path d="M25.9002 150.817C24.1344 150.476 23.011 148.756 23.3437 147.036L26.6217 131.032C26.9544 129.312 28.584 128.171 30.3132 128.458C30.3585 128.467 30.3585 128.467 30.4038 128.476C32.1696 128.817 33.2929 130.537 32.9602 132.258L29.6822 148.261C29.3495 149.982 27.5387 151.087 25.9002 150.817V150.817Z" fill="white"/>
</g>
<path d="M91.0191 57.4449V81.915H50.8447V56.8152L70.6171 37.0308L91.0191 57.4449Z" fill="#E4E3FF"/>
<path d="M91.0311 55.2381V79.7082H50.8568V54.6084L70.6292 34.824L91.0311 55.2381Z" fill="#8666C6"/>
<path d="M91.0311 55.2412V59.5153L70.6292 39.1012L50.8568 58.8857V54.6115L70.6292 34.8271L91.0311 55.2412Z" fill="#7553AA"/>
<path d="M95.8483 57.1484C95.2851 57.7395 94.5251 58.0209 93.7654 58.0209C93.0054 58.0209 92.2453 57.7395 91.6825 57.1484L88.7551 54.2493L70.6563 36.1225L58.4126 48.3946L50.2214 56.5856C49.0394 57.7114 47.1816 57.7114 46.0275 56.5856C44.8737 55.4315 44.8737 53.5456 46.0275 52.3915L51.3477 47.0436L58.4126 40.0068L64.83 33.5892L68.5452 29.8457C69.1084 29.2827 69.8684 28.9731 70.6563 28.9731C71.4445 28.9731 72.2045 29.2827 72.7392 29.8457L76.4548 33.561L95.8483 52.9545C97.0306 54.1086 97.0306 55.9944 95.8483 57.1484V57.1484Z" fill="#F9B938"/>
<g opacity="0.2">
<path d="M56.3596 45.9917C56.0751 45.7071 56.0751 45.2466 56.3596 44.9621L57.3249 43.9969C57.6094 43.7123 58.0699 43.7123 58.3545 43.9969C58.639 44.2814 58.639 44.7419 58.3545 45.0264L57.3892 45.9917C57.1047 46.2762 56.6442 46.2762 56.3596 45.9917Z" fill="white"/>
<path d="M58.7381 43.6133C58.4535 43.3287 58.4535 42.8682 58.7381 42.5837L65.0402 36.2815C65.3248 35.997 65.7853 35.997 66.0698 36.2815C66.3544 36.5661 66.3544 37.0266 66.0698 37.3111L59.7676 43.6133C59.4831 43.8978 59.0226 43.8978 58.7381 43.6133V43.6133Z" fill="white"/>
</g>
<path d="M78.0617 66.1442V77.1391H63.8262V66.1442C63.8262 62.2071 67.0189 59.0144 70.956 59.0144C72.9006 59.0144 74.6771 59.8065 75.9735 61.1029C77.2696 62.3992 78.0617 64.1757 78.0617 66.1442V66.1442Z" fill="#E4E3FF"/>
<path d="M76.6214 61.871C75.4211 60.9589 73.9567 60.4307 72.3485 60.4307C68.4352 60.4307 65.2425 63.6236 65.2425 67.5606V77.1391H63.8262V66.1442C63.8262 62.2071 67.0189 59.0144 70.956 59.0144C72.9006 59.0144 74.6771 59.8065 75.9735 61.1029C76.2132 61.3429 76.4295 61.607 76.6214 61.871Z" fill="#D0D0F7"/>
<path d="M75.5651 51.0681C75.5651 53.6368 73.5006 55.7015 70.9558 55.7015C68.3873 55.7015 66.3228 53.6368 66.3228 51.0681C66.3228 48.5235 68.3873 46.459 70.9558 46.459C73.5006 46.459 75.5651 48.5235 75.5651 51.0681Z" fill="#E4E3FF"/>
<path d="M74.773 48.4756C74.0527 47.9954 73.1645 47.7074 72.2042 47.7074C69.6356 47.7074 67.5711 49.7719 67.5711 52.3165C67.5711 53.2768 67.8592 54.1651 68.3632 54.9092C67.1389 54.093 66.3228 52.6767 66.3228 51.0681C66.3228 48.5235 68.3873 46.459 70.9558 46.459C72.5403 46.459 73.9326 47.2512 74.773 48.4756Z" fill="#D0D0F7"/>
<path d="M93.2078 78.431V80.859C93.2078 81.6229 92.5885 82.2421 91.8246 82.2421H50.0271C49.2632 82.2421 48.6439 81.6229 48.6439 80.859V78.431C48.6439 77.6671 49.2632 77.0479 50.0271 77.0479H91.8246C92.5885 77.0479 93.2078 77.6671 93.2078 78.431Z" fill="#F9B938"/>
<path d="M93.2106 78.4281V80.8618C93.2106 81.6246 92.5931 82.2421 91.8302 82.2421H50.0214C49.2586 82.2421 48.6411 81.6246 48.6411 80.8618V80.3654H89.9414C90.7042 80.3654 91.3217 79.7358 91.3217 78.973V77.0479H91.8302C92.5931 77.0479 93.2106 77.6654 93.2106 78.4281V78.4281Z" fill="#ECB021"/>
</svg>
